<svg width="588" height="639" viewBox="0 0 588 639" fill="none" xmlns="http://www.w3.org/2000/svg">
<rect x="74" y="27" width="453" height="579" rx="10"/>
<rect x="331" y="42" width="257" height="89" rx="10" fill="#FFBB47"/>
<path opacity="0.8" d="M430.602 73.114C430.602 72.162 430.817 71.308 431.246 70.552C431.675 69.7867 432.259 69.1893 432.996 68.76C433.743 68.3307 434.569 68.116 435.474 68.116C436.538 68.116 437.467 68.3727 438.26 68.886C439.053 69.3993 439.632 70.1273 439.996 71.07H438.47C438.199 70.482 437.807 70.0293 437.294 69.712C436.79 69.3947 436.183 69.236 435.474 69.236C434.793 69.236 434.181 69.3947 433.64 69.712C433.099 70.0293 432.674 70.482 432.366 71.07C432.058 71.6487 431.904 72.33 431.904 73.114C431.904 73.8887 432.058 74.57 432.366 75.158C432.674 75.7367 433.099 76.1847 433.64 76.502C434.181 76.8193 434.793 76.978 435.474 76.978C436.183 76.978 436.79 76.824 437.294 76.516C437.807 76.1987 438.199 75.746 438.47 75.158H439.996C439.632 76.0913 439.053 76.8147 438.26 77.328C437.467 77.832 436.538 78.084 435.474 78.084C434.569 78.084 433.743 77.874 432.996 77.454C432.259 77.0247 431.675 76.432 431.246 75.676C430.817 74.92 430.602 74.066 430.602 73.114ZM448.696 70.328V78H447.422V76.866C447.18 77.258 446.839 77.566 446.4 77.79C445.971 78.0047 445.495 78.112 444.972 78.112C444.375 78.112 443.838 77.9907 443.362 77.748C442.886 77.496 442.508 77.1227 442.228 76.628C441.958 76.1333 441.822 75.5313 441.822 74.822V70.328H443.082V74.654C443.082 75.41 443.274 75.9933 443.656 76.404C444.039 76.8053 444.562 77.006 445.224 77.006C445.906 77.006 446.442 76.796 446.834 76.376C447.226 75.956 447.422 75.3447 447.422 74.542V70.328H448.696ZM452.122 71.574C452.346 71.1353 452.663 70.7947 453.074 70.552C453.494 70.3093 454.002 70.188 454.6 70.188V71.504H454.264C452.836 71.504 452.122 72.2787 452.122 73.828V78H450.848V70.328H452.122V71.574ZM459.416 78.126C458.698 78.126 458.044 77.9627 457.456 77.636C456.878 77.3093 456.42 76.8473 456.084 76.25C455.758 75.6433 455.594 74.9433 455.594 74.15C455.594 73.366 455.762 72.6753 456.098 72.078C456.444 71.4713 456.91 71.0093 457.498 70.692C458.086 70.3653 458.744 70.202 459.472 70.202C460.2 70.202 460.858 70.3653 461.446 70.692C462.034 71.0093 462.496 71.4667 462.832 72.064C463.178 72.6613 463.35 73.3567 463.35 74.15C463.35 74.9433 463.173 75.6433 462.818 76.25C462.473 76.8473 462.002 77.3093 461.404 77.636C460.807 77.9627 460.144 78.126 459.416 78.126ZM459.416 77.006C459.874 77.006 460.303 76.8987 460.704 76.684C461.106 76.4693 461.428 76.1473 461.67 75.718C461.922 75.2887 462.048 74.766 462.048 74.15C462.048 73.534 461.927 73.0113 461.684 72.582C461.442 72.1527 461.124 71.8353 460.732 71.63C460.34 71.4153 459.916 71.308 459.458 71.308C458.992 71.308 458.562 71.4153 458.17 71.63C457.788 71.8353 457.48 72.1527 457.246 72.582C457.013 73.0113 456.896 73.534 456.896 74.15C456.896 74.7753 457.008 75.3027 457.232 75.732C457.466 76.1613 457.774 76.4833 458.156 76.698C458.539 76.9033 458.959 77.006 459.416 77.006ZM466.299 67.64V78H465.025V67.64H466.299ZM471.817 78.126C471.098 78.126 470.445 77.9627 469.857 77.636C469.278 77.3093 468.821 76.8473 468.485 76.25C468.158 75.6433 467.995 74.9433 467.995 74.15C467.995 73.366 468.163 72.6753 468.499 72.078C468.844 71.4713 469.311 71.0093 469.899 70.692C470.487 70.3653 471.145 70.202 471.873 70.202C472.601 70.202 473.259 70.3653 473.847 70.692C474.435 71.0093 474.897 71.4667 475.233 72.064C475.578 72.6613 475.751 73.3567 475.751 74.15C475.751 74.9433 475.573 75.6433 475.219 76.25C474.873 76.8473 474.402 77.3093 473.805 77.636C473.207 77.9627 472.545 78.126 471.817 78.126ZM471.817 77.006C472.274 77.006 472.703 76.8987 473.105 76.684C473.506 76.4693 473.828 76.1473 474.071 75.718C474.323 75.2887 474.449 74.766 474.449 74.15C474.449 73.534 474.327 73.0113 474.085 72.582C473.842 72.1527 473.525 71.8353 473.133 71.63C472.741 71.4153 472.316 71.308 471.859 71.308C471.392 71.308 470.963 71.4153 470.571 71.63C470.188 71.8353 469.88 72.1527 469.647 72.582C469.413 73.0113 469.297 73.534 469.297 74.15C469.297 74.7753 469.409 75.3027 469.633 75.732C469.866 76.1613 470.174 76.4833 470.557 76.698C470.939 76.9033 471.359 77.006 471.817 77.006ZM480.59 70.202C481.252 70.202 481.831 70.3467 482.326 70.636C482.83 70.9253 483.203 71.2893 483.446 71.728V70.328H484.734V78.168C484.734 78.868 484.584 79.4887 484.286 80.03C483.987 80.5807 483.558 81.01 482.998 81.318C482.447 81.626 481.803 81.78 481.066 81.78C480.058 81.78 479.218 81.542 478.546 81.066C477.874 80.59 477.477 79.9413 477.356 79.12H478.616C478.756 79.5867 479.045 79.96 479.484 80.24C479.922 80.5293 480.45 80.674 481.066 80.674C481.766 80.674 482.335 80.4547 482.774 80.016C483.222 79.5773 483.446 78.9613 483.446 78.168V76.558C483.194 77.006 482.82 77.3793 482.326 77.678C481.831 77.9767 481.252 78.126 480.59 78.126C479.908 78.126 479.288 77.958 478.728 77.622C478.177 77.286 477.743 76.8147 477.426 76.208C477.108 75.6013 476.95 74.9107 476.95 74.136C476.95 73.352 477.108 72.666 477.426 72.078C477.743 71.4807 478.177 71.0187 478.728 70.692C479.288 70.3653 479.908 70.202 480.59 70.202ZM483.446 74.15C483.446 73.5713 483.329 73.0673 483.096 72.638C482.862 72.2087 482.545 71.882 482.144 71.658C481.752 71.4247 481.318 71.308 480.842 71.308C480.366 71.308 479.932 71.42 479.54 71.644C479.148 71.868 478.835 72.1947 478.602 72.624C478.368 73.0533 478.252 73.5573 478.252 74.136C478.252 74.724 478.368 75.2373 478.602 75.676C478.835 76.1053 479.148 76.4367 479.54 76.67C479.932 76.894 480.366 77.006 480.842 77.006C481.318 77.006 481.752 76.894 482.144 76.67C482.545 76.4367 482.862 76.1053 483.096 75.676C483.329 75.2373 483.446 74.7287 483.446 74.15ZM493.495 70.328L488.875 81.612H487.559L489.071 77.916L485.977 70.328H487.391L489.799 76.544L492.179 70.328H493.495Z" fill="white"/>
<path d="M445.68 92.16V106H443.86V95.68L439.26 106H437.98L433.36 95.66V106H431.54V92.16H433.5L438.62 103.6L443.74 92.16H445.68ZM453.547 106.18C452.52 106.18 451.587 105.947 450.747 105.48C449.92 105.013 449.267 104.353 448.787 103.5C448.32 102.633 448.087 101.633 448.087 100.5C448.087 99.38 448.327 98.3933 448.807 97.54C449.3 96.6733 449.967 96.0133 450.807 95.56C451.647 95.0933 452.587 94.86 453.627 94.86C454.667 94.86 455.607 95.0933 456.447 95.56C457.287 96.0133 457.947 96.6667 458.427 97.52C458.92 98.3733 459.167 99.3667 459.167 100.5C459.167 101.633 458.913 102.633 458.407 103.5C457.913 104.353 457.24 105.013 456.387 105.48C455.533 105.947 454.587 106.18 453.547 106.18ZM453.547 104.58C454.2 104.58 454.813 104.427 455.387 104.12C455.96 103.813 456.42 103.353 456.767 102.74C457.127 102.127 457.307 101.38 457.307 100.5C457.307 99.62 457.133 98.8733 456.787 98.26C456.44 97.6467 455.987 97.1933 455.427 96.9C454.867 96.5933 454.26 96.44 453.607 96.44C452.94 96.44 452.327 96.5933 451.767 96.9C451.22 97.1933 450.78 97.6467 450.447 98.26C450.113 98.8733 449.947 99.62 449.947 100.5C449.947 101.393 450.107 102.147 450.427 102.76C450.76 103.373 451.2 103.833 451.747 104.14C452.293 104.433 452.893 104.58 453.547 104.58ZM462.5 93.26C462.153 93.26 461.86 93.14 461.62 92.9C461.38 92.66 461.26 92.3667 461.26 92.02C461.26 91.6733 461.38 91.38 461.62 91.14C461.86 90.9 462.153 90.78 462.5 90.78C462.833 90.78 463.113 90.9 463.34 91.14C463.58 91.38 463.7 91.6733 463.7 92.02C463.7 92.3667 463.58 92.66 463.34 92.9C463.113 93.14 462.833 93.26 462.5 93.26ZM463.38 95.04V106H461.56V95.04H463.38ZM470.361 106.18C469.521 106.18 468.768 106.04 468.101 105.76C467.435 105.467 466.908 105.067 466.521 104.56C466.135 104.04 465.921 103.447 465.881 102.78H467.761C467.815 103.327 468.068 103.773 468.521 104.12C468.988 104.467 469.595 104.64 470.341 104.64C471.035 104.64 471.581 104.487 471.981 104.18C472.381 103.873 472.581 103.487 472.581 103.02C472.581 102.54 472.368 102.187 471.941 101.96C471.515 101.72 470.855 101.487 469.961 101.26C469.148 101.047 468.481 100.833 467.961 100.62C467.455 100.393 467.015 100.067 466.641 99.64C466.281 99.2 466.101 98.6267 466.101 97.92C466.101 97.36 466.268 96.8467 466.601 96.38C466.935 95.9133 467.408 95.5467 468.021 95.28C468.635 95 469.335 94.86 470.121 94.86C471.335 94.86 472.315 95.1667 473.061 95.78C473.808 96.3933 474.208 97.2333 474.261 98.3H472.441C472.401 97.7267 472.168 97.2667 471.741 96.92C471.328 96.5733 470.768 96.4 470.061 96.4C469.408 96.4 468.888 96.54 468.501 96.82C468.115 97.1 467.921 97.4667 467.921 97.92C467.921 98.28 468.035 98.58 468.261 98.82C468.501 99.0467 468.795 99.2333 469.141 99.38C469.501 99.5133 469.995 99.6667 470.621 99.84C471.408 100.053 472.048 100.267 472.541 100.48C473.035 100.68 473.455 100.987 473.801 101.4C474.161 101.813 474.348 102.353 474.361 103.02C474.361 103.62 474.195 104.16 473.861 104.64C473.528 105.12 473.055 105.5 472.441 105.78C471.841 106.047 471.148 106.18 470.361 106.18ZM479.151 96.54V103C479.151 103.533 479.264 103.913 479.491 104.14C479.717 104.353 480.111 104.46 480.671 104.46H482.011V106H480.371C479.357 106 478.597 105.767 478.091 105.3C477.584 104.833 477.331 104.067 477.331 103V96.54H475.911V95.04H477.331V92.28H479.151V95.04H482.011V96.54H479.151ZM493.936 95.04V106H492.116V104.38C491.769 104.94 491.282 105.38 490.656 105.7C490.042 106.007 489.362 106.16 488.616 106.16C487.762 106.16 486.996 105.987 486.316 105.64C485.636 105.28 485.096 104.747 484.696 104.04C484.309 103.333 484.116 102.473 484.116 101.46V95.04H485.916V101.22C485.916 102.3 486.189 103.133 486.736 103.72C487.282 104.293 488.029 104.58 488.976 104.58C489.949 104.58 490.716 104.28 491.276 103.68C491.836 103.08 492.116 102.207 492.116 101.06V95.04H493.936ZM498.829 96.82C499.149 96.1933 499.602 95.7067 500.189 95.36C500.789 95.0133 501.515 94.84 502.369 94.84V96.72H501.889C499.849 96.72 498.829 97.8267 498.829 100.04V106H497.009V95.04H498.829V96.82ZM505.41 93.26C505.063 93.26 504.77 93.14 504.53 92.9C504.29 92.66 504.17 92.3667 504.17 92.02C504.17 91.6733 504.29 91.38 504.53 91.14C504.77 90.9 505.063 90.78 505.41 90.78C505.743 90.78 506.023 90.9 506.25 91.14C506.49 91.38 506.61 91.6733 506.61 92.02C506.61 92.3667 506.49 92.66 506.25 92.9C506.023 93.14 505.743 93.26 505.41 93.26ZM506.29 95.04V106H504.47V95.04H506.29ZM510.752 104.5H516.132V106H508.672V104.5L513.992 96.52H508.712V95.04H516.092V96.52L510.752 104.5ZM528.493 100.1C528.493 100.447 528.473 100.813 528.433 101.2H519.673C519.74 102.28 520.106 103.127 520.773 103.74C521.453 104.34 522.273 104.64 523.233 104.64C524.02 104.64 524.673 104.46 525.193 104.1C525.726 103.727 526.1 103.233 526.313 102.62H528.273C527.98 103.673 527.393 104.533 526.513 105.2C525.633 105.853 524.54 106.18 523.233 106.18C522.193 106.18 521.26 105.947 520.433 105.48C519.62 105.013 518.98 104.353 518.513 103.5C518.046 102.633 517.813 101.633 517.813 100.5C517.813 99.3667 518.04 98.3733 518.493 97.52C518.946 96.6667 519.58 96.0133 520.393 95.56C521.22 95.0933 522.166 94.86 523.233 94.86C524.273 94.86 525.193 95.0867 525.993 95.54C526.793 95.9933 527.406 96.62 527.833 97.42C528.273 98.2067 528.493 99.1 528.493 100.1ZM526.613 99.72C526.613 99.0267 526.46 98.4333 526.153 97.94C525.846 97.4333 525.426 97.0533 524.893 96.8C524.373 96.5333 523.793 96.4 523.153 96.4C522.233 96.4 521.446 96.6933 520.793 97.28C520.153 97.8667 519.786 98.68 519.693 99.72H526.613ZM532.715 96.82C533.035 96.1933 533.489 95.7067 534.075 95.36C534.675 95.0133 535.402 94.84 536.255 94.84V96.72H535.775C533.735 96.72 532.715 97.8267 532.715 100.04V106H530.895V95.04H532.715V96.82Z" fill="white"/>
<circle cx="377" cy="86" r="21" fill="#FAFCFF"/>
<path d="M381.375 83.5629V82.875C381.374 82.2122 381.111 81.5767 380.642 81.1081C380.173 80.6394 379.538 80.3758 378.875 80.375H377.625V78.5H380.125C380.291 78.5002 380.45 78.5661 380.567 78.6833C380.684 78.8004 380.75 78.9593 380.75 79.125C380.75 79.2908 380.816 79.4497 380.933 79.5669C381.05 79.6842 381.209 79.75 381.375 79.75C381.541 79.75 381.7 79.6842 381.817 79.5669C381.934 79.4497 382 79.2908 382 79.125C381.999 78.6279 381.802 78.1513 381.45 77.7998C381.099 77.4483 380.622 77.2506 380.125 77.25H375.125C374.959 77.25 374.8 77.3158 374.683 77.4331C374.566 77.5503 374.5 77.7092 374.5 77.875C374.5 78.0408 374.566 78.1997 374.683 78.3169C374.8 78.4342 374.959 78.5 375.125 78.5H376.375V80.375H375.125C374.462 80.3758 373.827 80.6394 373.358 81.1081C372.889 81.5767 372.626 82.2122 372.625 82.875V83.5629C371.92 83.7079 371.286 84.0916 370.83 84.6494C370.375 85.2072 370.126 85.9049 370.125 86.625V92.875C370.125 93.2064 370.257 93.5241 370.492 93.7585C370.726 93.9928 371.044 94.1246 371.375 94.125H382.625C382.956 94.1246 383.274 93.9928 383.508 93.7585C383.743 93.5241 383.875 93.2064 383.875 92.875V86.625C383.874 85.9049 383.625 85.2072 383.17 84.6494C382.714 84.0916 382.08 83.7079 381.375 83.5629V83.5629ZM375.125 81.625H378.875C379.206 81.6254 379.524 81.7572 379.758 81.9915C379.993 82.2259 380.125 82.5436 380.125 82.875V83.5H373.875V82.875C373.875 82.5436 374.007 82.2259 374.242 81.9915C374.476 81.7572 374.794 81.6254 375.125 81.625Z" fill="#6E59A4"/>
<rect width="62" height="62" rx="5" fill="#6E59A4"/>
<rect x="537" y="606" width="33" height="33" rx="5" fill="#FFBB47"/>
<path d="M276 212L276 87L331 87" stroke="#FFBB47" stroke-width="3" stroke-linecap="round" stroke-dasharray="8 8"/>
<g filter="url(#filter0_f_299_158)">
<circle cx="275" cy="216" r="7" transform="rotate(180 275 216)" fill="white"/>
</g>
<circle cx="275" cy="216" r="4" transform="rotate(180 275 216)" fill="#FFBB47"/>
<defs>
<filter id="filter0_f_299_158" x="267" y="208" width="16" height="16" filterUnits="userSpaceOnUse" color-interpolation-filters="sRGB">
<feFlood flood-opacity="0" result="BackgroundImageFix"/>
<feBlend mode="normal" in="SourceGraphic" in2="BackgroundImageFix" result="shape"/>
<feGaussianBlur stdDeviation="0.5" result="effect1_foregroundBlur_299_158"/>
</filter>
</defs>
</svg>
