<svg width="84" height="34" viewBox="0 0 84 34" fill="none" xmlns="http://www.w3.org/2000/svg">
<rect width="44.625" height="34" rx="17" fill="#6E59A4"/>
<path d="M2.67422 17.4061C2.67422 16.2904 2.92578 15.2896 3.42891 14.4037C3.93203 13.5068 4.61563 12.8068 5.47969 12.3037C6.35469 11.8006 7.32266 11.549 8.38359 11.549C9.63047 11.549 10.7188 11.8498 11.6484 12.4514C12.5781 13.0529 13.2563 13.9061 13.6828 15.0107H11.8945C11.5773 14.3217 11.118 13.7912 10.5164 13.4193C9.92578 13.0475 9.21484 12.8615 8.38359 12.8615C7.58516 12.8615 6.86875 13.0475 6.23438 13.4193C5.6 13.7912 5.10234 14.3217 4.74141 15.0107C4.38047 15.6889 4.2 16.4873 4.2 17.4061C4.2 18.3139 4.38047 19.1123 4.74141 19.8014C5.10234 20.4795 5.6 21.0045 6.23438 21.3764C6.86875 21.7482 7.58516 21.9342 8.38359 21.9342C9.21484 21.9342 9.92578 21.7537 10.5164 21.3928C11.118 21.0209 11.5773 20.4904 11.8945 19.8014H13.6828C13.2563 20.8951 12.5781 21.7428 11.6484 22.3443C10.7188 22.935 9.63047 23.2303 8.38359 23.2303C7.32266 23.2303 6.35469 22.9842 5.47969 22.492C4.61563 21.9889 3.93203 21.2943 3.42891 20.4084C2.92578 19.5225 2.67422 18.5217 2.67422 17.4061ZM23.8787 14.1412V23.1318H22.3857V21.8029C22.1013 22.2623 21.7021 22.6232 21.188 22.8857C20.6849 23.1373 20.1271 23.2631 19.5146 23.2631C18.8146 23.2631 18.1857 23.1209 17.6279 22.8365C17.0701 22.5412 16.6271 22.1037 16.299 21.524C15.9818 20.9443 15.8232 20.2389 15.8232 19.4076V14.1412H17.2997V19.2107C17.2997 20.0967 17.524 20.7803 17.9724 21.2615C18.4208 21.7318 19.0333 21.967 19.8099 21.967C20.6083 21.967 21.2372 21.7209 21.6966 21.2287C22.156 20.7365 22.3857 20.0201 22.3857 19.0795V14.1412H23.8787ZM27.8924 15.6014C28.1549 15.0873 28.5268 14.6881 29.008 14.4037C29.5002 14.1193 30.0963 13.9771 30.7963 13.9771V15.5193H30.4026C28.7291 15.5193 27.8924 16.4271 27.8924 18.2428V23.1318H26.3995V14.1412H27.8924V15.6014ZM36.4408 23.2795C35.5987 23.2795 34.833 23.0881 34.144 22.7053C33.4658 22.3225 32.9299 21.7811 32.5362 21.0811C32.1533 20.3701 31.9619 19.5498 31.9619 18.6201C31.9619 17.7014 32.1588 16.892 32.5526 16.192C32.9573 15.4811 33.5041 14.9396 34.1932 14.5678C34.8823 14.185 35.6533 13.9936 36.5065 13.9936C37.3596 13.9936 38.1307 14.185 38.8198 14.5678C39.5088 14.9396 40.0502 15.4756 40.444 16.1756C40.8487 16.8756 41.051 17.6904 41.051 18.6201C41.051 19.5498 40.8432 20.3701 40.4276 21.0811C40.0229 21.7811 39.4705 22.3225 38.7705 22.7053C38.0705 23.0881 37.294 23.2795 36.4408 23.2795ZM36.4408 21.967C36.9768 21.967 37.4799 21.8412 37.9502 21.5896C38.4205 21.3381 38.7979 20.9607 39.0823 20.4576C39.3776 19.9545 39.5252 19.342 39.5252 18.6201C39.5252 17.8982 39.383 17.2857 39.0987 16.7826C38.8143 16.2795 38.4424 15.9076 37.983 15.667C37.5237 15.4154 37.026 15.2896 36.4901 15.2896C35.9432 15.2896 35.4401 15.4154 34.9807 15.667C34.5323 15.9076 34.1713 16.2795 33.8979 16.7826C33.6244 17.2857 33.4877 17.8982 33.4877 18.6201C33.4877 19.3529 33.619 19.9709 33.8815 20.474C34.1549 20.9771 34.5158 21.3545 34.9643 21.6061C35.4127 21.8467 35.9049 21.967 36.4408 21.967Z" fill="white"/>
<path d="M51.3188 10.9912V23.1318H49.8258V10.9912H51.3188ZM57.7844 23.2795C56.9422 23.2795 56.1765 23.0881 55.4875 22.7053C54.8094 22.3225 54.2734 21.7811 53.8797 21.0811C53.4969 20.3701 53.3054 19.5498 53.3054 18.6201C53.3054 17.7014 53.5023 16.892 53.8961 16.192C54.3008 15.4811 54.8476 14.9396 55.5367 14.5678C56.2258 14.185 56.9969 13.9936 57.85 13.9936C58.7031 13.9936 59.4742 14.185 60.1633 14.5678C60.8523 14.9396 61.3937 15.4756 61.7875 16.1756C62.1922 16.8756 62.3945 17.6904 62.3945 18.6201C62.3945 19.5498 62.1867 20.3701 61.7711 21.0811C61.3664 21.7811 60.814 22.3225 60.114 22.7053C59.414 23.0881 58.6375 23.2795 57.7844 23.2795ZM57.7844 21.967C58.3203 21.967 58.8234 21.8412 59.2937 21.5896C59.764 21.3381 60.1414 20.9607 60.4258 20.4576C60.7211 19.9545 60.8687 19.342 60.8687 18.6201C60.8687 17.8982 60.7265 17.2857 60.4422 16.7826C60.1578 16.2795 59.7859 15.9076 59.3265 15.667C58.8672 15.4154 58.3695 15.2896 57.8336 15.2896C57.2867 15.2896 56.7836 15.4154 56.3242 15.667C55.8758 15.9076 55.5148 16.2795 55.2414 16.7826C54.9679 17.2857 54.8312 17.8982 54.8312 18.6201C54.8312 19.3529 54.9625 19.9709 55.225 20.474C55.4984 20.9771 55.8594 21.3545 56.3078 21.6061C56.7562 21.8467 57.2484 21.967 57.7844 21.967ZM68.0653 13.9936C68.8419 13.9936 69.52 14.1631 70.0997 14.5021C70.6903 14.8412 71.1278 15.2678 71.4122 15.7818V14.1412H72.9216V23.3287C72.9216 24.149 72.7466 24.8764 72.3966 25.5107C72.0466 26.1561 71.5434 26.6592 70.8872 27.0201C70.2419 27.3811 69.4872 27.5615 68.6231 27.5615C67.4419 27.5615 66.4575 27.2826 65.67 26.7248C64.8825 26.167 64.4176 25.4068 64.2755 24.4443H65.752C65.9161 24.9912 66.2551 25.4287 66.7692 25.7568C67.2833 26.0959 67.9012 26.2654 68.6231 26.2654C69.4434 26.2654 70.1106 26.0084 70.6247 25.4943C71.1497 24.9803 71.4122 24.2584 71.4122 23.3287V21.442C71.1169 21.967 70.6794 22.4045 70.0997 22.7545C69.52 23.1045 68.8419 23.2795 68.0653 23.2795C67.2669 23.2795 66.5395 23.0826 65.8833 22.6889C65.238 22.2951 64.7294 21.7428 64.3575 21.0318C63.9856 20.3209 63.7997 19.5115 63.7997 18.6037C63.7997 17.685 63.9856 16.8811 64.3575 16.192C64.7294 15.492 65.238 14.9506 65.8833 14.5678C66.5395 14.185 67.2669 13.9936 68.0653 13.9936ZM71.4122 18.6201C71.4122 17.942 71.2755 17.3514 71.002 16.8482C70.7286 16.3451 70.3567 15.9623 69.8864 15.6998C69.427 15.4264 68.9184 15.2896 68.3606 15.2896C67.8028 15.2896 67.2942 15.4209 66.8348 15.6834C66.3755 15.9459 66.0091 16.3287 65.7356 16.8318C65.4622 17.335 65.3255 17.9256 65.3255 18.6037C65.3255 19.2928 65.4622 19.8943 65.7356 20.4084C66.0091 20.9115 66.3755 21.2998 66.8348 21.5732C67.2942 21.8357 67.8028 21.967 68.3606 21.967C68.9184 21.967 69.427 21.8357 69.8864 21.5732C70.3567 21.2998 70.7286 20.9115 71.002 20.4084C71.2755 19.8943 71.4122 19.2982 71.4122 18.6201ZM83.1883 14.1412L77.7742 27.3646H76.232L78.0039 23.0334L74.3781 14.1412H76.0352L78.857 21.4256L81.6461 14.1412H83.1883Z" fill="#6E59A4"/>
</svg>
